<svg width="1020" height="1114" viewBox="0 0 1020 1114" fill="none" xmlns="http://www.w3.org/2000/svg">
<path d="M797.425 860.235L871.083 918.655L922.82 965.113C947.9 987.634 968.675 1014.53 984.131 1044.48L1020 1114H0L0.000358823 425.079L653.403 946.083C662.754 953.54 675.986 953.655 685.466 946.362L797.425 860.235Z" fill="#04303F"/>
<path d="M537.925 366.813L668.418 454.241L599.325 487.624L470.737 399.471L537.925 366.813Z" fill="#04303F"/>
<path d="M470.735 399.474L599.33 487.623L599.285 492.872L470.631 404.045L470.735 399.474Z" fill="#012534"/>
<path d="M599.33 487.622L668.423 454.239L669.29 458.946L599.286 492.872L599.33 487.622Z" fill="#112E3D"/>
<path d="M439.452 11.8647L778.19 231.512L766.727 244.88L427.988 25.2312L439.452 11.8647Z" fill="#04303F"/>
<path d="M766.725 244.878L778.189 231.512L749.64 516.15L738.176 529.516L766.725 244.878Z" fill="#04303F"/>
<g filter="url(#filter0_d_534_135)">
<path d="M427.986 25.2354L597.354 135.059L766.722 244.882L738.235 529.526L402.671 304.913L427.986 25.2354Z" fill="#C4C4C4"/>
<path d="M406.694 303.056L431.242 31.8664L595.943 138.664L762.666 246.772L735.038 522.836L406.694 303.056Z" stroke="#3D2222" stroke-width="8"/>
</g>
<path d="M501.916 80.3438L760.59 248.268L734.502 518.981L477.643 348.308L501.916 80.3438Z" fill="black"/>
<path d="M431.758 33.8964L501.916 80.3436L477.643 348.308L407.485 301.861L431.758 33.8964Z" fill="#1C1919"/>
<path d="M432.74 52.0275C432.501 50.5616 433.789 49.6229 434.969 50.403L463.362 69.1734C463.805 69.4664 464.119 69.9732 464.2 70.5241C464.392 71.8338 463.244 72.661 462.186 71.9751L433.673 53.4909C433.188 53.1761 432.838 52.6283 432.74 52.0275Z" fill="#D9D9D9"/>
<path d="M506.715 99.2538C506.305 97.7083 507.641 96.5867 508.9 97.4192L545.53 121.635C545.92 121.893 546.213 122.318 546.331 122.797C546.673 124.181 545.48 125.167 544.353 124.433L507.6 100.508C507.176 100.231 506.852 99.7737 506.715 99.2538Z" fill="#4FB500"/>
<path d="M512.108 124.543C511.272 122.901 512.682 121.308 514.127 122.264L577.006 163.833C577.278 164.013 577.506 164.277 577.659 164.589C578.382 166.068 577.118 167.472 575.826 166.625L512.821 125.352C512.527 125.159 512.278 124.878 512.108 124.543Z" fill="#00AAB5"/>
<path d="M494.919 288.969C494.794 287.573 496.041 286.757 497.165 287.5L520.295 302.791C520.778 303.111 521.105 303.681 521.15 304.281C521.242 305.527 520.13 306.249 519.121 305.597L495.873 290.587C495.342 290.244 494.977 289.626 494.919 288.969Z" fill="#00AAB5"/>
<path d="M493.13 315.528C492.419 313.901 493.814 312.45 495.205 313.369L549.082 348.988C549.387 349.189 549.635 349.495 549.785 349.855C550.395 351.318 549.147 352.595 547.902 351.781L493.901 316.458C493.57 316.242 493.298 315.914 493.13 315.528Z" fill="#00AAB5"/>
<path d="M522.312 154.36C520.832 152.807 522.242 150.421 523.966 151.56L692.387 262.903C692.501 262.979 692.609 263.07 692.706 263.174C694.024 264.581 692.752 266.712 691.204 265.691L522.656 154.648C522.533 154.567 522.417 154.47 522.312 154.36Z" fill="#B5A300"/>
<path d="M520.045 177.643C518.599 176.079 520.012 173.737 521.721 174.867L678.564 278.556C678.687 278.637 678.801 278.736 678.904 278.849C680.19 280.266 678.916 282.355 677.381 281.345L520.41 177.955C520.279 177.868 520.156 177.763 520.045 177.643Z" fill="#B5A300"/>
<path d="M517.364 202.283C516.203 200.651 517.629 198.673 519.213 199.72L615.85 263.607C616.041 263.733 616.211 263.902 616.349 264.101C617.37 265.576 616.087 267.329 614.668 266.397L517.904 202.809C517.699 202.674 517.515 202.494 517.364 202.283Z" fill="#B5A300"/>
<path d="M431.984 63.7389C431.505 62.1682 432.857 60.9714 434.148 61.8245L474.383 88.4243C474.752 88.6683 475.036 89.0633 475.165 89.5143C475.568 90.9212 474.36 91.9735 473.205 91.2208L432.847 64.9131C432.445 64.6511 432.133 64.2267 431.984 63.7389Z" fill="#D9D9D9"/>
<path d="M430.711 74.2039C430.407 72.7046 431.715 71.6964 432.926 72.4969L464.374 93.2871C464.796 93.5661 465.102 94.0403 465.2 94.5638C465.448 95.9041 464.282 96.7915 463.197 96.087L431.628 75.5851C431.167 75.2852 430.827 74.7735 430.711 74.2039Z" fill="#D9D9D9"/>
<path d="M429.042 96.2684C429.025 94.9523 430.227 94.2525 431.294 94.9575L449.522 107.008C450.046 107.354 450.383 107.993 450.382 108.638C450.381 109.814 449.311 110.436 448.35 109.819L430.008 98.0436C429.43 97.6724 429.052 96.9774 429.042 96.2684Z" fill="#D9D9D9"/>
<path d="M426.827 119.112C426.516 117.61 427.826 116.595 429.04 117.397L460.788 138.386C461.208 138.664 461.514 139.135 461.613 139.656C461.867 140.999 460.699 141.892 459.611 141.186L427.742 120.486C427.282 120.187 426.944 119.679 426.827 119.112Z" fill="#D9D9D9"/>
<path d="M423.379 155.07C422.991 153.534 424.322 152.436 425.571 153.262L461.09 176.743C461.486 177.005 461.782 177.44 461.896 177.929C462.219 179.303 461.031 180.269 459.912 179.541L424.272 156.35C423.839 156.069 423.513 155.6 423.379 155.07Z" fill="#D9D9D9"/>
<path d="M423.726 141.82C423.792 140.579 424.952 139.971 425.971 140.644L440.292 150.112C440.852 150.482 441.195 151.182 441.15 151.862C441.077 152.972 440.043 153.517 439.123 152.931L424.691 143.729C424.072 143.334 423.685 142.57 423.726 141.82Z" fill="#D9D9D9"/>
<path d="M425.584 131.251C425.196 129.714 426.527 128.617 427.776 129.443L463.295 152.924C463.691 153.186 463.987 153.621 464.101 154.109C464.424 155.484 463.236 156.45 462.117 155.722L426.477 132.531C426.044 132.25 425.718 131.781 425.584 131.251Z" fill="#D9D9D9"/>
<path d="M427.789 107.432C427.401 105.895 428.732 104.798 429.981 105.624L465.5 129.105C465.896 129.367 466.192 129.802 466.306 130.29C466.629 131.665 465.441 132.631 464.323 131.903L428.682 108.712C428.249 108.431 427.923 107.962 427.789 107.432Z" fill="#D9D9D9"/>
<path d="M429.572 85.0078C429.333 83.5418 430.621 82.6031 431.801 83.3832L460.194 102.154C460.637 102.447 460.951 102.953 461.032 103.504C461.224 104.814 460.076 105.641 459.018 104.955L430.505 86.4712C430.02 86.1564 429.67 85.6085 429.572 85.0078Z" fill="#D9D9D9"/>
<path d="M511.692 249.931C510.683 248.285 512.106 246.492 513.624 247.495L591.932 299.265C592.16 299.416 592.358 299.627 592.507 299.877C593.388 301.362 592.11 302.948 590.751 302.056L512.317 250.584C512.07 250.422 511.855 250.197 511.692 249.931Z" fill="#B5A300"/>
<path d="M502.565 348.369C501.046 346.831 502.452 344.392 504.193 345.543L687.993 467.054C688.098 467.123 688.198 467.206 688.289 467.3C689.643 468.693 688.375 470.873 686.81 469.842L502.883 348.631C502.77 348.557 502.663 348.469 502.565 348.369Z" fill="#B5A300"/>
<path d="M509.802 276.118C508.388 274.544 509.805 272.246 511.499 273.365L658.315 370.426C658.446 370.512 658.567 370.618 658.674 370.741C659.93 372.167 658.653 374.216 657.132 373.214L510.189 276.453C510.049 276.361 509.918 276.248 509.802 276.118Z" fill="#B5A300"/>
<path d="M515.016 226.836C513.483 225.304 514.887 222.845 516.635 224L707.205 349.987C707.307 350.054 707.403 350.133 707.491 350.223C708.86 351.611 707.593 353.81 706.022 352.775L515.324 227.088C515.215 227.016 515.112 226.932 515.016 226.836Z" fill="#B5A300"/>
<path d="M720.494 823.466C722.726 822.188 725.634 822.772 727.406 824.855L745.475 846.101C747.733 848.756 747.242 852.698 744.441 854.398L685.931 889.928C683.721 891.27 680.786 890.743 678.971 888.676L659.325 866.307C656.964 863.619 657.487 859.545 660.408 857.872L720.494 823.466Z" fill="black" stroke="#542828" stroke-width="5"/>
<g filter="url(#filter1_d_534_135)">
<path d="M565.315 776.678C564.65 777.758 563.433 778.705 561.678 779.487C559.936 780.264 557.859 780.79 555.78 781.127C553.715 781.461 551.745 781.595 550.269 781.629C549.531 781.646 548.936 781.638 548.531 781.621C548.512 781.621 548.493 781.62 548.476 781.619C547.654 781.032 546.819 779.899 546.136 778.079C545.375 776.051 544.923 773.482 544.791 770.724C544.66 767.978 544.851 765.142 545.313 762.617C545.781 760.056 546.498 757.985 547.31 756.666C548.071 755.431 548.699 755.183 549.085 755.11C549.624 755.009 550.48 755.108 551.83 755.689C553.152 756.259 554.609 757.137 556.273 758.185C556.502 758.329 556.736 758.477 556.973 758.627C558.389 759.524 559.928 760.498 561.467 761.314C567.355 764.438 568.624 766.863 568.727 768.639C568.785 769.628 568.513 770.745 567.893 772.116C567.264 773.504 566.369 774.966 565.315 776.678Z" fill="white" stroke="#D44A4A" stroke-width="5"/>
<path d="M555.812 744.868L602.071 762.308L598.324 802.921L551.082 793.009L555.812 744.868Z" fill="#D54A4A"/>
<path d="M569.145 766.782C580.878 772.343 588.3 772.37 592.762 770.944C597.234 769.515 599.057 766.527 599.437 765.422C599.468 765.329 599.504 765.229 599.541 765.12C600.129 763.439 601.384 759.845 601.031 755.617C600.662 751.193 598.521 745.985 591.613 741.62C584.776 737.299 577.636 735.454 571.64 735.761C565.655 736.067 560.925 738.491 558.486 742.635C557.502 744.305 556.205 748.505 557.156 753.214C558.087 757.83 561.194 763.015 569.145 766.782Z" fill="#D9D9D9" stroke="#D44A4A" stroke-width="3"/>
<path d="M564.861 810.905C576.595 816.465 584.016 816.493 588.479 815.067C592.95 813.638 594.773 810.65 595.153 809.544C595.185 809.452 595.22 809.352 595.258 809.243C595.846 807.562 597.101 803.968 596.748 799.74C596.379 795.316 594.238 790.108 587.33 785.743C580.493 781.422 573.353 779.576 567.356 779.883C561.372 780.19 556.642 782.614 554.202 786.758C553.219 788.428 551.922 792.628 552.872 797.337C553.804 801.953 556.911 807.138 564.861 810.905Z" fill="#D44A4A" stroke="#D44A4A" stroke-width="3"/>
<path d="M597.982 758.922C598.023 762.295 597.553 766.17 594.833 768.369C591.765 770.849 585.486 772.033 574.675 768.064C564.405 764.292 557.642 758.911 560.116 750.021C561.604 744.673 567.092 740.857 572.86 740.776C576.376 740.727 579.94 741.662 585.479 744.262C591.688 747.177 597.893 751.481 597.982 758.922Z" fill="#A9876D"/>
</g>
<path d="M597.929 714.176C571.561 723.283 598.464 747.769 579.728 732.226C573.941 726.419 575.176 723.526 576.039 716.333C576.531 712.238 580.141 709.218 584.222 708.618C607.743 705.158 567.707 666.337 576.145 670.984C584.612 675.647 593.67 688.725 596.925 697.827C598.765 702.973 599.799 708.726 597.929 714.176Z" fill="#E9E9E9"/>
<path d="M322.582 478.319L486.977 609.466L420.424 655.328L254.846 524.316L322.582 478.319Z" fill="black"/>
<path d="M256.003 535.39L255.65 524.563L406.676 644.085L421.279 654.928L421.601 664.819L256.003 535.39Z" fill="#242020"/>
<path d="M421.194 655.183L486.998 609.923L487.399 618.583L421.555 664.335L421.194 655.183Z" fill="#242020"/>
<line y1="-0.5" x2="77.4212" y2="-0.5" transform="matrix(0.840646 -0.590266 0.391369 0.897116 409.59 644.617)" stroke="#FFFAFA"/>
<line y1="-0.5" x2="77.4212" y2="-0.5" transform="matrix(0.840646 -0.590266 0.391369 0.897116 395.08 634.312)" stroke="#FFFAFA"/>
<line y1="-0.5" x2="77.4212" y2="-0.5" transform="matrix(0.840646 -0.590266 0.391369 0.897116 382.043 623.845)" stroke="#FFFAFA"/>
<line y1="-0.5" x2="62.8885" y2="-0.5" transform="matrix(0.841677 -0.588687 0.390017 0.897785 366.52 591.661)" stroke="#FFFAFA"/>
<line y1="-0.5" x2="62.8885" y2="-0.5" transform="matrix(0.841677 -0.588687 0.390017 0.897785 353.482 581.193)" stroke="#FFFAFA"/>
<line y1="-0.5" x2="62.8885" y2="-0.5" transform="matrix(0.841677 -0.588687 0.390017 0.897785 341.178 570.645)" stroke="#FFFAFA"/>
<line y1="-0.5" x2="62.8885" y2="-0.5" transform="matrix(0.841677 -0.588687 0.390017 0.897785 327.404 560.259)" stroke="#FFFAFA"/>
<line y1="-0.5" x2="77.4212" y2="-0.5" transform="matrix(0.840646 -0.590266 0.391369 0.897116 300.701 557.72)" stroke="#FFFAFA"/>
<line y1="-0.5" x2="77.4212" y2="-0.5" transform="matrix(0.840646 -0.590266 0.391369 0.897116 367.492 612.629)" stroke="#FFFAFA"/>
<line y1="-0.5" x2="77.4212" y2="-0.5" transform="matrix(0.840646 -0.590266 0.391369 0.897116 286.844 545.511)" stroke="#FFFAFA"/>
<line y1="-0.5" x2="77.4212" y2="-0.5" transform="matrix(0.840646 -0.590266 0.391369 0.897116 272.336 535.206)" stroke="#FFFAFA"/>
<line y1="-0.5" x2="216.8" y2="-0.5" transform="matrix(0.747178 0.614588 -0.492735 0.902837 309.939 486.138)" stroke="white"/>
<line y1="-0.5" x2="216.8" y2="-0.5" transform="matrix(0.747178 0.614588 -0.492735 0.902837 294.807 494.23)" stroke="white"/>
<line y1="-0.5" x2="216.8" y2="-0.5" transform="matrix(0.747178 0.614588 -0.492735 0.902837 271.365 514.238)" stroke="white"/>
<line y1="-0.5" x2="216.8" y2="-0.5" transform="matrix(0.747178 0.614588 -0.492735 0.902837 281.963 503.9)" stroke="white"/>
<g filter="url(#filter2_d_534_135)">
<path d="M515.577 683.029C514.384 689.813 511.26 695.748 507.147 699.642C497.836 708.458 488.04 710.608 487.752 707.277C486.874 705.938 502.014 702.704 505.181 698.423C506.715 690.67 503.506 664.728 504.384 666.067C505.155 667.243 519.166 662.624 515.577 683.029Z" fill="#232323"/>
<path d="M512.321 686.103C512.159 687.096 511.85 688.056 511.328 688.797C497.49 708.432 474.089 721.456 466.483 708.983C458.728 696.267 461.371 675.398 472.386 662.371C494.146 653.126 491.132 651.758 506.371 661.805C520.859 671.358 513.899 676.408 512.321 686.103Z" fill="black"/>
<path d="M475.783 661.063L507.093 685.033" stroke="#979797"/>
<g filter="url(#filter3_b_534_135)">
<path d="M491.262 672.41L502.364 659.631" stroke="white"/>
</g>
</g>
<path d="M301.545 584.715C301.545 602.128 284.1 603.887 275.055 609C261.853 609 253.734 602.128 253.734 584.715C253.734 567.302 264.437 553.186 277.639 553.186C290.842 553.186 301.545 567.302 301.545 584.715Z" fill="#A9876D"/>
<path d="M320.059 576.076C321.707 579.002 321.213 583.645 315.677 589.068C310.142 594.49 296.676 598.301 295.028 595.375C289.714 585.939 301.156 579.745 307.405 579.369C312.94 573.946 318.411 573.149 320.059 576.076Z" fill="#A9876D"/>
<path d="M322.542 550.372C324.498 554.853 316.354 559.2 308.005 565.542C301.867 574.489 294.132 581.101 292.176 576.62C290.219 572.139 295.534 560.082 303.883 553.741C312.232 547.4 320.586 545.891 322.542 550.372Z" fill="#A9876D"/>
<path d="M313.711 535.466C315.668 539.946 309.851 548.671 300.862 555.5C294.145 564.887 282.89 568.026 280.934 563.545C278.977 559.064 287.058 549.947 296.048 543.118C305.037 536.29 311.755 530.985 313.711 535.466Z" fill="#A9876D"/>
<path d="M302.901 534.881C304.858 539.362 296.713 543.71 288.364 550.051C282.227 558.998 274.492 565.61 272.535 561.129C270.579 556.648 275.894 544.592 284.242 538.25C292.591 531.909 300.945 530.401 302.901 534.881Z" fill="#A9876D"/>
<path d="M288.106 535.2C290.682 539.098 283.328 545.44 276.067 553.791C271.356 564.134 264.737 572.594 262.16 568.696C259.584 564.799 263.031 551.615 270.293 543.264C277.554 534.913 285.53 531.303 288.106 535.2Z" fill="#A9876D"/>
<path d="M278.812 427.456C284.989 512.64 244.247 517.966 215.879 512.327C187.51 506.688 169.201 465.46 174.985 420.242C180.769 375.024 208.454 342.939 236.823 348.578C265.191 354.217 284.596 382.238 278.812 427.456Z" fill="#A9876D"/>
<path d="M179.903 491.034L244.425 501.807L233.915 523.098L222.525 517.143L197.661 509.316C190.082 506.93 183.01 502.875 176.963 497.446L179.903 491.034Z" fill="#A9876D"/>
<path d="M285.24 376.127C286.312 383.587 283.421 390.62 280.069 397.037C257.915 439.457 294.225 482.22 229.585 499.539C165.586 516.687 144.019 438.324 150.372 388.653C156.725 338.982 181.001 339 221.001 339C259.537 339 281.049 346.96 285.24 376.127Z" fill="#04303F"/>
<path d="M293.287 622.252C286.055 678.79 304.12 867.063 182.571 815.687C113.567 801.971 49.3085 765.671 83.7752 577.355C91.0065 520.818 107.579 462.048 207.268 507.056C306.958 552.064 298.681 580.075 293.287 622.252Z" fill="#04303F"/>
<path d="M349.002 719.5C337.64 728.05 308.087 741.349 288.266 727.607C267.267 683.027 260.625 570.492 271.987 561.942C283.35 553.391 290.977 558.335 311.976 602.914C326.274 648.316 355.473 714.63 349.002 719.5Z" fill="#04303F"/>
<path d="M348.501 711.5C364.501 753 339.299 764.498 452.001 688L458.501 708.5L463.001 726.5L400.976 776.065L354.325 809.964C345.892 816.092 336.427 819.319 326.884 819.319C322.674 819.319 318.821 816.608 316.627 812.101L301.034 780.064L290.746 750.611L348.501 711.5Z" fill="#A9876D"/>
<path d="M462.001 727C450.886 727.018 454.129 726.912 446.829 723.065C432.019 710.836 433.558 699.483 446.806 680.906C460.791 658.325 463.965 670.333 477.477 684.782C496.015 704.605 483.65 726.965 462.001 727Z" fill="#A9876D"/>
<path d="M498.138 697.695C496.191 698.713 494.186 699.794 492.212 700.858C483.542 705.53 475.474 709.878 475.597 707.186C476.113 695.919 492.087 686.108 494.003 686.031C494.152 686.025 494.363 686.016 494.626 686.005C497.716 685.869 507.922 685.422 508.905 686.327C512.764 689.882 510.492 693.443 498.138 697.695Z" fill="#A9876D"/>
<path d="M498.138 697.695C496.191 698.713 494.186 699.794 492.212 700.858C483.542 705.53 475.474 709.878 475.597 707.186C476.113 695.919 492.087 686.108 494.003 686.031C494.152 686.025 494.363 686.016 494.626 686.005C497.716 685.869 507.922 685.422 508.905 686.327C512.764 689.882 510.492 693.443 498.138 697.695Z" stroke="black"/>
<path d="M494.876 711.105C491.652 712.791 488.183 714.814 484.928 716.713C477.584 720.996 471.329 724.644 471.434 722.354C476.72 709.274 490.524 701.752 492.439 701.675C492.722 701.664 493.116 701.639 493.584 701.61C496.289 701.44 501.472 701.114 501.994 702.326C503.756 706.418 501.29 707.75 494.876 711.105Z" fill="#A9876D"/>
<path d="M494.876 711.105C491.652 712.791 488.183 714.814 484.928 716.713C477.584 720.996 471.329 724.644 471.434 722.354C476.72 709.274 490.524 701.752 492.439 701.675C492.722 701.664 493.116 701.639 493.584 701.61C496.289 701.44 501.472 701.114 501.994 702.326C503.756 706.418 501.29 707.75 494.876 711.105Z" stroke="black"/>
<path d="M490.637 683.657C481.154 692.322 470.745 696.846 468.358 690.922C471.558 683.614 479.742 677.718 482.582 675.202C486.868 671.405 500.571 665.1 504.362 669.578C508.365 674.306 504.366 678.078 490.637 683.657Z" fill="#A9876D"/>
<path d="M477.534 676.653C469.065 685.964 459.599 693.737 458.548 689.944C451.919 683.801 460.254 678.495 470.267 668.007C484.323 653.284 487.161 653.547 489.157 656.352C492.105 660.493 489.685 661.722 477.534 676.653Z" fill="#A9876D"/>
<path d="M466.605 674.179C462.202 684.972 453.445 690.655 451.499 688.252C449.553 685.849 448.104 677.582 457.234 667.424C466.035 657.632 468.155 660.159 474.746 660.091C473.275 673.224 469.413 667.298 466.605 674.179Z" fill="#A9876D"/>
<path d="M150.075 632.096L161.778 619.906L175.383 606.561L180.726 632.48L185.242 656.907L157.001 677.82L150.075 632.096Z" fill="white"/>
<path d="M166.51 630.089L168.644 630.94L162.157 652.283L160.023 651.433L166.51 630.089Z" fill="black"/>
<rect width="4.19077" height="2.72952" transform="matrix(0.933722 0.371942 -0.289827 0.953592 164.73 629.381)" fill="black"/>
<path d="M167.039 651.311L170.774 652.799L169.983 655.401L166.248 653.914L166.644 652.612L167.039 651.311Z" fill="black"/>
<rect width="6.09566" height="2.72952" transform="matrix(0.933722 0.371942 -0.289827 0.953592 159.035 648.123)" fill="black"/>
<path d="M169.254 644.023L171.21 644.802L170.103 648.446L168.995 652.09L167.039 651.311L169.254 644.023Z" fill="black"/>
<path d="M170.933 641.774C170.759 642.349 169.422 642.34 167.949 641.753C164.945 641.14 164.648 642.772 165.597 639.649C165.772 639.074 168.433 637.743 169.906 638.33C173.207 639.937 171.108 641.199 170.933 641.774Z" fill="black"/>
<path d="M171.21 644.802C170.904 645.808 169.587 645.323 169.292 645.205C168.998 645.088 169.106 644.508 169.412 643.502C169.689 641.278 170.475 642.382 170.4 641.561C170.262 640.047 173.346 637.774 171.21 644.802Z" fill="black"/>
<defs>
<filter id="filter0_d_534_135" x="390.67" y="25.2354" width="386.053" height="528.291" filterUnits="userSpaceOnUse" color-interpolation-filters="sRGB">
<feFlood flood-opacity="0" result="BackgroundImageFix"/>
<feColorMatrix in="SourceAlpha" type="matrix" values="0 0 0 0 0 0 0 0 0 0 0 0 0 0 0 0 0 0 127 0" result="hardAlpha"/>
<feOffset dx="-1" dy="13"/>
<feGaussianBlur stdDeviation="5.5"/>
<feComposite in2="hardAlpha" operator="out"/>
<feColorMatrix type="matrix" values="0 0 0 0 0 0 0 0 0 0 0 0 0 0 0 0 0 0 0.25 0"/>
<feBlend mode="normal" in2="BackgroundImageFix" result="effect1_dropShadow_534_135"/>
<feBlend mode="normal" in="SourceGraphic" in2="effect1_dropShadow_534_135" result="shape"/>
</filter>
<filter id="filter1_d_534_135" x="540.18" y="734.283" width="64.4688" height="91.0188" filterUnits="userSpaceOnUse" color-interpolation-filters="sRGB">
<feFlood flood-opacity="0" result="BackgroundImageFix"/>
<feColorMatrix in="SourceAlpha" type="matrix" values="0 0 0 0 0 0 0 0 0 0 0 0 0 0 0 0 0 0 127 0" result="hardAlpha"/>
<feOffset dy="6"/>
<feGaussianBlur stdDeviation="1"/>
<feComposite in2="hardAlpha" operator="out"/>
<feColorMatrix type="matrix" values="0 0 0 0 0 0 0 0 0 0 0 0 0 0 0 0 0 0 0.25 0"/>
<feBlend mode="normal" in2="BackgroundImageFix" result="effect1_dropShadow_534_135"/>
<feBlend mode="normal" in="SourceGraphic" in2="effect1_dropShadow_534_135" result="shape"/>
</filter>
<filter id="filter2_d_534_135" x="447.033" y="646.835" width="86.1309" height="91.0466" filterUnits="userSpaceOnUse" color-interpolation-filters="sRGB">
<feFlood flood-opacity="0" result="BackgroundImageFix"/>
<feColorMatrix in="SourceAlpha" type="matrix" values="0 0 0 0 0 0 0 0 0 0 0 0 0 0 0 0 0 0 127 0" result="hardAlpha"/>
<feOffset dx="1" dy="8"/>
<feGaussianBlur stdDeviation="8"/>
<feComposite in2="hardAlpha" operator="out"/>
<feColorMatrix type="matrix" values="0 0 0 0 0 0 0 0 0 0 0 0 0 0 0 0 0 0 0.92 0"/>
<feBlend mode="normal" in2="BackgroundImageFix" result="effect1_dropShadow_534_135"/>
<feBlend mode="normal" in="SourceGraphic" in2="effect1_dropShadow_534_135" result="shape"/>
</filter>
<filter id="filter3_b_534_135" x="433.822" y="602.251" width="125.98" height="127.539" filterUnits="userSpaceOnUse" color-interpolation-filters="sRGB">
<feFlood flood-opacity="0" result="BackgroundImageFix"/>
<feGaussianBlur in="BackgroundImage" stdDeviation="28.5"/>
<feComposite in2="SourceAlpha" operator="in" result="effect1_backgroundBlur_534_135"/>
<feBlend mode="normal" in="SourceGraphic" in2="effect1_backgroundBlur_534_135" result="shape"/>
</filter>
</defs>
</svg>
