<svg width="94" height="69" viewBox="0 0 94 69" fill="none" xmlns="http://www.w3.org/2000/svg">
<path d="M31.4407 51.8488C31.4407 52.1151 31.0048 52.3281 30.4552 52.3281C29.8298 52.3681 29.394 52.155 29.394 51.8488C29.394 51.5825 29.8298 51.3694 30.3794 51.3694C30.948 51.3295 31.4407 51.5425 31.4407 51.8488ZM25.5468 51.2496C25.4141 51.5159 25.7931 51.8221 26.3617 51.902C26.8544 52.0352 27.423 51.902 27.5367 51.6357C27.6504 51.3694 27.2903 51.0632 26.7218 50.9433C26.229 50.8501 25.6794 50.9833 25.5468 51.2496ZM33.9234 51.0232C33.3738 51.1164 32.9948 51.3694 33.0516 51.6757C33.1085 51.942 33.6012 52.1151 34.1698 52.0219C34.7194 51.9287 35.0984 51.6757 35.0415 51.4094C34.9847 51.1564 34.473 50.9833 33.9234 51.0232ZM46.3935 0C20.1077 0 0 14.0207 0 32.4887C0 47.2551 13.2282 59.8911 32.123 64.3383C34.5488 64.6445 35.4016 63.5926 35.4016 62.7272C35.4016 61.9016 35.3448 57.3479 35.3448 54.5517C35.3448 54.5517 22.0786 56.549 19.2927 50.5838C19.2927 50.5838 17.1323 46.7092 14.0242 45.7105C14.0242 45.7105 9.68427 43.6201 14.3274 43.66C14.3274 43.66 19.0464 43.9263 21.6427 47.0953C25.7931 52.2349 32.7484 50.7569 35.4585 49.8781C35.8944 47.7477 37.1262 46.2698 38.4907 45.391C27.8968 44.5654 17.2081 43.4869 17.2081 30.6779C17.2081 27.0162 18.6484 25.1787 21.6806 22.8353C21.1879 21.9698 19.577 18.4014 22.1734 13.7944C26.1343 12.9289 35.25 17.3894 35.25 17.3894C39.0403 16.6438 43.1149 16.2577 47.1516 16.2577C51.1883 16.2577 55.2629 16.6438 59.0532 17.3894C59.0532 17.3894 68.169 12.9156 72.1298 13.7944C74.7262 18.4147 73.1153 21.9698 72.6226 22.8353C75.6548 25.1921 77.5121 27.0295 77.5121 30.6779C77.5121 43.5269 66.3496 44.5521 55.7556 45.391C57.4992 46.4429 58.9774 48.4401 58.9774 51.5692C58.9774 56.0563 58.9206 61.6087 58.9206 62.7005C58.9206 63.566 59.7923 64.6179 62.1992 64.3117C81.1508 59.8911 94 47.2551 94 32.4887C94 14.0207 72.6794 0 46.3935 0ZM18.421 45.9236C18.1746 46.0567 18.2315 46.363 18.5536 46.616C18.8569 46.829 19.2927 46.9222 19.5391 46.7491C19.7855 46.616 19.7286 46.3097 19.4065 46.0567C19.1032 45.8437 18.6673 45.7505 18.421 45.9236ZM16.3742 44.8451C16.2415 45.0182 16.431 45.2312 16.8101 45.3643C17.1133 45.4975 17.4923 45.4576 17.625 45.2711C17.7577 45.098 17.5681 44.885 17.1891 44.7519C16.8101 44.672 16.5069 44.7119 16.3742 44.8451ZM22.5145 49.5852C22.2113 49.7583 22.325 50.1578 22.7609 50.4107C23.1968 50.717 23.7464 50.7569 23.9927 50.5439C24.2391 50.3708 24.1254 49.9713 23.7464 49.7184C23.3294 49.4121 22.7609 49.3722 22.5145 49.5852ZM20.354 47.6279C20.0508 47.7611 20.0508 48.1072 20.354 48.4135C20.6573 48.7197 21.169 48.8529 21.4153 48.7197C21.7185 48.5466 21.7185 48.2005 21.4153 47.8942C21.15 47.588 20.6573 47.4548 20.354 47.6279Z" fill="white"/>
</svg>
