<svg width="72" height="68" viewBox="0 0 72 68" fill="none" xmlns="http://www.w3.org/2000/svg">
<g clip-path="url(#clip0_338_85)">
<path d="M36.5617 15.6406C26.1889 15.6406 17.8222 22.99 17.8222 32.1014C17.8222 41.2129 26.1889 48.5622 36.5617 48.5622C46.9345 48.5622 55.3013 41.2129 55.3013 32.1014C55.3013 22.99 46.9345 15.6406 36.5617 15.6406ZM36.5617 42.8031C29.8585 42.8031 24.3786 38.0038 24.3786 32.1014C24.3786 26.199 29.8422 21.3998 36.5617 21.3998C43.2812 21.3998 48.7449 26.199 48.7449 32.1014C48.7449 38.0038 43.2649 42.8031 36.5617 42.8031ZM60.4388 14.9673C60.4388 17.1019 58.4816 18.8067 56.0678 18.8067C53.6377 18.8067 51.6969 17.0876 51.6969 14.9673C51.6969 12.847 53.654 11.1279 56.0678 11.1279C58.4816 11.1279 60.4388 12.847 60.4388 14.9673ZM72.8503 18.864C72.573 13.7209 71.2356 9.16519 66.9463 5.41172C62.6732 1.65826 57.4868 0.483509 51.6317 0.225638C45.5972 -0.0752125 27.51 -0.0752125 21.4755 0.225638C15.6367 0.469183 10.4503 1.64393 6.1609 5.3974C1.87151 9.15086 0.550444 13.7066 0.256874 18.8497C-0.0856247 24.1504 -0.0856247 40.0381 0.256874 45.3388C0.534135 50.4819 1.87151 55.0377 6.1609 58.7911C10.4503 62.5446 15.6204 63.7194 21.4755 63.9772C27.51 64.2781 45.5972 64.2781 51.6317 63.9772C57.4868 63.7337 62.6732 62.5589 66.9463 58.7911C71.2193 55.0377 72.5567 50.4819 72.8503 45.3388C73.1928 40.0381 73.1928 24.1647 72.8503 18.864ZM65.0544 51.0263C63.7822 53.8343 61.3195 55.9975 58.1065 57.1293C53.2952 58.8055 41.8786 58.4187 36.5617 58.4187C31.2448 58.4187 19.8119 58.7911 15.0169 57.1293C11.8203 56.0119 9.35755 53.8486 8.06911 51.0263C6.1609 46.8001 6.60125 36.7718 6.60125 32.1014C6.60125 27.4311 6.17721 17.3884 8.06911 13.1765C9.34124 10.3686 11.804 8.20533 15.0169 7.07356C19.8282 5.3974 31.2448 5.7842 36.5617 5.7842C41.8786 5.7842 53.3115 5.41172 58.1065 7.07356C61.3032 8.191 63.7659 10.3543 65.0544 13.1765C66.9626 17.4028 66.5222 27.4311 66.5222 32.1014C66.5222 36.7718 66.9626 46.8144 65.0544 51.0263Z" fill="white"/>
</g>
<defs>
<clipPath id="clip0_338_85">
<rect width="72" height="67.8504" fill="white"/>
</clipPath>
</defs>
</svg>
