<svg width="94" height="88" viewBox="0 0 94 88" fill="none" xmlns="http://www.w3.org/2000/svg">
<path d="M21.0409 76.2049H1.55268V25.3278H21.0409V76.2049ZM11.2863 18.3876C5.0546 18.3876 0 14.2032 0 9.15118C4.46038e-08 6.72453 1.18909 4.39726 3.30568 2.68135C5.42227 0.96545 8.29298 0.00146484 11.2863 0.00146484C14.2796 0.00146484 17.1503 0.96545 19.2669 2.68135C21.3835 4.39726 22.5726 6.72453 22.5726 9.15118C22.5726 14.2032 17.5159 18.3876 11.2863 18.3876ZM93.979 76.2049H74.5328V51.4382C74.5328 45.5357 74.3859 37.9662 64.4005 37.9662C54.2682 37.9662 52.7155 44.379 52.7155 51.013V76.2049H33.2483V25.3278H51.9392V32.2679H52.212C54.8138 28.2705 61.1692 24.052 70.6511 24.052C90.3743 24.052 94 34.5812 94 48.2573V76.2049H93.979Z" fill="white"/>
</svg>
