<svg width="89" height="90" viewBox="0 0 89 90" fill="none" xmlns="http://www.w3.org/2000/svg">
<rect x="45" y="1.00002" width="62.2254" height="62.2254" transform="rotate(45 45 1.00002)" fill="white"/>
<path d="M56.192 57.608V59H45.92V57.608L47.696 57.464V47.336C47.696 45.928 47.296 44.84 46.496 44.072C45.728 43.304 44.656 42.904 43.28 42.872L41.696 44.456L41.6 57.464L43.376 57.608V59H33.056V57.608L34.832 57.464L34.592 28.712L32.768 29.096L32.288 27.704L41.168 25.016L41.84 26.168L41.696 42.152L45.584 36.584C48.624 36.584 50.864 37.304 52.304 38.744C53.744 40.184 54.464 42.408 54.464 45.416V57.464L56.192 57.608Z" fill="black"/>
<line x1="0.646447" y1="44.6464" x2="44.6464" y2="0.646446" stroke="black"/>
<line x1="88.6464" y1="45.3536" x2="44.6464" y2="1.35355" stroke="black"/>
<line x1="44.6464" y1="88.6464" x2="88.6464" y2="44.6464" stroke="black"/>
<line x1="44.6464" y1="89.3536" x2="0.646448" y2="45.3536" stroke="black"/>
</svg>
