<svg id="visual" viewBox="0 0 900 600" width="900" height="600" xmlns="http://www.w3.org/2000/svg" xmlns:xlink="http://www.w3.org/1999/xlink" version="1.1"><rect x="0" y="0" width="900" height="600" fill="#ffffff"></rect><path d="M0 24L13.7 23.5C27.3 23 54.7 22 82 21C109.3 20 136.7 19 163.8 22C191 25 218 32 245.2 32.5C272.3 33 299.7 27 327 26.7C354.3 26.3 381.7 31.7 409 34.2C436.3 36.7 463.7 36.3 491 34.8C518.3 33.3 545.7 30.7 573 28C600.3 25.3 627.7 22.7 654.8 24.7C682 26.7 709 33.3 736.2 36.5C763.3 39.7 790.7 39.3 818 36.7C845.3 34 872.7 29 886.3 26.5L900 24L900 0L886.3 0C872.7 0 845.3 0 818 0C790.7 0 763.3 0 736.2 0C709 0 682 0 654.8 0C627.7 0 600.3 0 573 0C545.7 0 518.3 0 491 0C463.7 0 436.3 0 409 0C381.7 0 354.3 0 327 0C299.7 0 272.3 0 245.2 0C218 0 191 0 163.8 0C136.7 0 109.3 0 82 0C54.7 0 27.3 0 13.7 0L0 0Z" fill="#04303F" stroke-linecap="round" stroke-linejoin="miter"></path></svg>